custom-analysis
version=1
nRows=7
nColumns=98
inDegrees=no

This file contains tibia displacement and acting force.

Units are S.I. units (seconds, meters, Newtons, ...)
Angles are in degrees.

endheader
time	APT	SIT	knee_angle	aACL_R_force	pACL_R_force	aPCL_R_force	pPCL_R_force	aMCL_R_force	mMCL_R_force	pMCL_R_force	aLCL_R_force	mLCL_R_force	pLCL_R_force	aPCL_L_force	pPCL_L_force	aMCL_L_force	aLCL_L_force	aACL_R_length	pACL_R_length	aPCL_R_length	pPCL_R_length	aMCL_R_length	mMCL_R_length	pMCL_R_length	aLCL_R_length	mLCL_R_length	pLCL_R_length	aPCL_L_length	pPCL_L_length	aMCL_L_length	aLCL_L_length	aACL_R_strain	pACL_R_strain	aPCL_R_strain	pPCL_R_strain	aMCL_R_strain	mMCL_R_strain	pMCL_R_strain	aLCL_R_strain	mLCL_R_strain	pLCL_R_strain	aPCL_L_strain	pPCL_L_strain	aMCL_L_strain	aLCL_L_strain	femur_lat_meniscii_r.femur_lat_r.force.X	femur_lat_meniscii_r.femur_lat_r.force.Y	femur_lat_meniscii_r.femur_lat_r.force.Z	femur_lat_meniscii_r.femur_lat_r.torque.X	femur_lat_meniscii_r.femur_lat_r.torque.Y	femur_lat_meniscii_r.femur_lat_r.torque.Z	femur_lat_meniscii_r.meniscus_lat_r.force.X	femur_lat_meniscii_r.meniscus_lat_r.force.Y	femur_lat_meniscii_r.meniscus_lat_r.force.Z	femur_lat_meniscii_r.meniscus_lat_r.torque.X	femur_lat_meniscii_r.meniscus_lat_r.torque.Y	femur_lat_meniscii_r.meniscus_lat_r.torque.Z	femur_med_meniscii_r.femur_med_r.force.X	femur_med_meniscii_r.femur_med_r.force.Y	femur_med_meniscii_r.femur_med_r.force.Z	femur_med_meniscii_r.femur_med_r.torque.X	femur_med_meniscii_r.femur_med_r.torque.Y	femur_med_meniscii_r.femur_med_r.torque.Z	femur_med_meniscii_r.meniscus_med_r.force.X	femur_med_meniscii_r.meniscus_med_r.force.Y	femur_med_meniscii_r.meniscus_med_r.force.Z	femur_med_meniscii_r.meniscus_med_r.torque.X	femur_med_meniscii_r.meniscus_med_r.torque.Y	femur_med_meniscii_r.meniscus_med_r.torque.Z	femur_med_tibia_r.tibia_upper_r.force.X	femur_med_tibia_r.tibia_upper_r.force.Y	femur_med_tibia_r.tibia_upper_r.force.Z	femur_med_tibia_r.tibia_upper_r.torque.X	femur_med_tibia_r.tibia_upper_r.torque.Y	femur_med_tibia_r.tibia_upper_r.torque.Z	femur_med_tibia_r.femur_med_r.force.X	femur_med_tibia_r.femur_med_r.force.Y	femur_med_tibia_r.femur_med_r.force.Z	femur_med_tibia_r.femur_med_r.torque.X	femur_med_tibia_r.femur_med_r.torque.Y	femur_med_tibia_r.femur_med_r.torque.Z	femur_lat_tibia_r.tibia_upper_r.force.X	femur_lat_tibia_r.tibia_upper_r.force.Y	femur_lat_tibia_r.tibia_upper_r.force.Z	femur_lat_tibia_r.tibia_upper_r.torque.X	femur_lat_tibia_r.tibia_upper_r.torque.Y	femur_lat_tibia_r.tibia_upper_r.torque.Z	femur_lat_tibia_r.femur_lat_r.force.X	femur_lat_tibia_r.femur_lat_r.force.Y	femur_lat_tibia_r.femur_lat_r.force.Z	femur_lat_tibia_r.femur_lat_r.torque.X	femur_lat_tibia_r.femur_lat_r.torque.Y	femur_lat_tibia_r.femur_lat_r.torque.Z	femur_lat_meniscii_force_r	femur_med_meniscii_force_r	femur_lat_tibia_force_r	femur_med_tibia_force_r
      0.20946094	      0.01350078	      0.02614970	     81.35284126	      0.51131187	      0.00000000	    965.02171407	    609.68336677	     23.53428556	      9.14789592	      0.00000000	      0.00000000	      0.00000000	      0.00000000	      0.00000000	      0.00000000	      0.00000001	      0.00000000	      0.03103340	      0.02443782	      0.03716934	      0.03395568	      0.06147968	      0.05992426	      0.05657194	      0.05014008	      0.04470247	      0.03970666	      0.01525851	      0.01651186	      0.06550154	      0.04489616	      0.00089988	     -0.02477698	      0.19533613	      0.13610489	      0.02420036	      0.00218683	     -0.03671264	     -0.10427673	     -0.20625737	     -0.24140988	      0.00000079	     -0.32847694	      0.00000060	     -0.00000086	    154.22727451	     95.13237387	      9.46787294	     -5.95699480	      3.59151364	     61.22136912	   -154.22727451	    -95.13237387	     -9.46787294	      2.47623040	     -4.25849585	      2.18045405	      0.04566455	      0.00098715	     -0.02853189	      0.01135886	     -0.00070897	      0.01815450	     -0.04566455	     -0.00098715	      0.02853189	     -0.00010425	      0.00136128	     -0.00011922	   -898.38336938	   -370.34423514	    317.39580457	     -8.31112252	     21.92885807	      2.26223624	    898.38336938	    370.34423514	   -317.39580457	    134.46602811	    -15.71073949	    362.07248984	   -305.82433075	   -137.09057569	    -83.69581762	      4.46664588	    -10.58732703	      1.02335103	    305.82433075	    137.09057569	     83.69581762	    -37.10872632	      7.50408916	    123.30096476	    181.45484667	      0.05385438	    345.43789183	   1022.24636348
      0.20947490	      0.01350028	      0.02615241	     81.36049134	     -0.02640868	      0.00000000	    966.59437383	    613.79913632	     24.99174064	     10.96094656	      0.00000000	      0.00000000	      0.00000000	      0.00000000	      0.00000000	      0.00000000	      0.00000001	      0.00000000	      0.03103342	      0.02443822	      0.03716994	      0.03395615	      0.06148005	      0.05992443	      0.05657222	      0.05013936	      0.04470165	      0.03970595	      0.01525851	      0.01651186	      0.06550154	      0.04489616	      0.00090046	     -0.02476122	      0.19535556	      0.13612080	      0.02420664	      0.00218976	     -0.03670792	     -0.10428962	     -0.20627204	     -0.24142327	      0.00000079	     -0.32847694	      0.00000060	     -0.00000086	    148.17908777	     95.30699600	     11.02114542	     -6.58999856	      3.46720240	     58.76991488	   -148.17908777	    -95.30699600	    -11.02114542	      2.49714165	     -4.16028520	      2.25200405	      0.04344230	      0.00115813	     -0.02720285	      0.01083192	     -0.00067498	      0.01726907	     -0.04344230	     -0.00115813	      0.02720285	     -0.00010090	      0.00129718	     -0.00010541	   -895.72847638	   -373.70664616	    315.21652384	     -8.31640196	     21.81624323	      2.43120124	    895.72847638	    373.70664616	   -315.21652384	    133.62183978	    -15.65002126	    360.95078657	   -304.69020680	   -138.45613617	    -84.56383450	      4.51127396	    -10.59567221	      1.09662348	    304.69020680	    138.45613617	     84.56383450	    -37.49223407	      7.49169459	    122.81852733	    176.52742333	      0.05126958	    345.19163644	   1020.46441275
      0.20948887	      0.01349962	      0.02615502	     81.36811298	     -1.80116058	      0.00000000	    971.63536819	    627.42026823	     29.88709156	     17.03889896	      0.00000000	      0.00000000	      0.00000000	      0.00000000	      0.00000000	      0.00000000	      0.00000001	      0.00000000	      0.03103338	      0.02443860	      0.03717071	      0.03395680	      0.06148051	      0.05992471	      0.05657261	      0.05013875	      0.04470094	      0.03970540	      0.01525851	      0.01651186	      0.06550154	      0.04489616	      0.00089924	     -0.02474605	      0.19538029	      0.13614253	      0.02421429	      0.00219439	     -0.03670121	     -0.10430046	     -0.20628452	     -0.24143394	      0.00000079	     -0.32847694	      0.00000060	     -0.00000086	    128.01617620	     94.94160082	     15.76584051	     -8.50214414	      3.04687562	     50.61048179	   -128.01617620	    -94.94160082	    -15.76584051	      2.53713971	     -3.81505370	      2.45038193	      0.03605235	      0.00156485	     -0.02274742	      0.00906381	     -0.00056165	      0.01432616	     -0.03605235	     -0.00156485	      0.02274742	     -0.00008873	      0.00108269	     -0.00006573	   -886.13455054	   -384.52256457	    307.77021002	     -8.33152180	     21.42635575	      2.97750035	    886.13455054	    384.52256457	   -307.77021002	    130.73006211	    -15.43639189	    356.91714883	   -300.88139032	   -142.72084500	    -87.26760372	      4.65126374	    -10.61464563	      1.32559267	    300.88139032	    142.72084500	     87.26760372	    -38.68735905	      7.44728902	    121.20413236	    160.15808023	      0.04265754	    344.25932855	   1013.81188912
      0.20952508	      0.01349750	      0.02616154	     81.38781407	     -2.83205175	      0.00000000	    975.10764906	    636.13761411	     32.98349393	     20.85916859	      0.00000000	      0.00000000	      0.00000000	      0.00000000	      0.00000000	      0.00000000	      0.00000001	      0.00000000	      0.03103316	      0.02443955	      0.03717309	      0.03395890	      0.06148190	      0.05992567	      0.05657391	      0.05013745	      0.04469941	      0.03970429	      0.01525851	      0.01651186	      0.06550154	      0.04489616	      0.00089197	     -0.02470791	      0.19545696	      0.13621267	      0.02423738	      0.00221046	     -0.03667909	     -0.10432371	     -0.20631172	     -0.24145510	      0.00000079	     -0.32847694	      0.00000060	     -0.00000086	    114.70456050	     91.14599231	     18.13955949	     -9.39598089	      2.76588470	     45.26243658	   -114.70456050	    -91.14599231	    -18.13955949	      2.48467348	     -3.56313219	      2.44679216	      0.03083873	      0.00166737	     -0.01955555	      0.00779516	     -0.00048129	      0.01225144	     -0.03083873	     -0.00166737	      0.01955555	     -0.00007846	      0.00092968	     -0.00004412	   -878.01262464	   -389.78293832	    302.76535775	     -8.31675918	     21.14549614	      3.29828528	    878.01262464	    389.78293832	   -302.76535775	    128.75768161	    -15.26915084	    353.54290144	   -298.03775344	   -144.95510623	    -88.59258196	      4.72252686	    -10.60121387	      1.46142079	    298.03775344	    144.95510623	     88.59258196	    -39.27573001	      7.40509637	    120.00983963	    147.62713752	      0.03655444	    343.05557986	   1007.22577900
      0.20956130	      0.01349526	      0.02616798	     81.40749434	     -2.76324525	      0.00000000	    975.55870898	    636.48700117	     33.03166166	     20.89923950	      0.00000000	      0.00000000	      0.00000000	      0.00000000	      0.00000000	      0.00000000	      0.00000001	      0.00000000	      0.03103290	      0.02444050	      0.03717560	      0.03396112	      0.06148335	      0.05992671	      0.05657530	      0.05013624	      0.04469798	      0.03970329	      0.01525851	      0.01651186	      0.06550154	      0.04489616	      0.00088357	     -0.02466990	      0.19553761	      0.13628717	      0.02426154	      0.00222785	     -0.03665544	     -0.10434536	     -0.20633722	     -0.24147413	      0.00000079	     -0.32847694	      0.00000060	     -0.00000086	    114.46880236	     91.09208948	     17.97405963	     -9.32819381	      2.75874029	     45.16671300	   -114.46880236	    -91.09208948	    -17.97405963	      2.48193058	     -3.55096529	      2.44907331	      0.02997712	      0.00163512	     -0.01902125	      0.00758222	     -0.00046797	      0.01190889	     -0.02997712	     -0.00163512	      0.01902125	     -0.00007620	      0.00090421	     -0.00004204	   -875.25388234	   -387.74870209	    301.96514832	     -8.28010340	     21.08378324	      3.26825651	    875.25388234	    387.74870209	   -301.96514832	    128.40211858	    -15.22126816	    352.43651060	   -297.31747935	   -144.28262399	    -88.57266955	      4.70579498	    -10.58371202	      1.44933619	    297.31747935	    144.28262399	     88.57266955	    -39.25345119	      7.38968739	    119.72195029	    147.39044169	      0.03554025	    342.14072676	   1003.79348739
      0.20973612	      0.01348466	      0.02619915	     81.50253039	     -2.27788248	      0.00000000	    976.71918023	    635.49403507	     32.07426477	     19.71519517	      0.00000000	      0.00000000	      0.00000000	      0.00000000	      0.00000000	      0.00000000	      0.00000001	      0.00000000	      0.03103178	      0.02444520	      0.03718747	      0.03397162	      0.06149023	      0.05993159	      0.05658185	      0.05013025	      0.04469090	      0.03969833	      0.01525851	      0.01651186	      0.06550154	      0.04489616	      0.00084754	     -0.02448240	      0.19591941	      0.13663835	      0.02437624	      0.00230945	     -0.03654391	     -0.10445234	     -0.20646281	     -0.24156902	      0.00000079	     -0.32847694	      0.00000060	     -0.00000086	    117.99040883	     90.06136693	     15.56056267	     -8.31683718	      2.81907280	     46.60254482	   -117.99040883	    -90.06136693	    -15.56056267	      2.41936974	     -3.55565178	      2.37909671	      0.02734190	      0.00150913	     -0.01739631	      0.00693430	     -0.00042719	      0.01086138	     -0.02734190	     -0.00150913	      0.01739631	     -0.00006891	      0.00082654	     -0.00003636	   -864.53745487	   -378.97073472	    300.22285680	     -8.13999474	     20.89731775	      3.12768419	    864.53745487	    378.97073472	   -300.22285680	    127.56170397	    -15.05113116	    348.14495143	   -294.53536879	   -141.94828833	    -86.85566274	      4.62051713	    -10.45128821	      1.41666574	    294.53536879	    141.94828833	     86.85566274	    -38.49966179	      7.30944112	    118.60528627	    149.24783918	      0.03244209	    338.29618114	    990.54408907
      0.20999762	      0.01346954	      0.02624639	     81.64481643	     -1.88944271	      0.00000000	    977.82975878	    632.72717325	     29.72248740	     17.02147807	      0.00000000	      0.00000000	      0.00000000	      0.00000000	      0.00000000	      0.00000000	      0.00000001	      0.00000000	      0.03103041	      0.02445238	      0.03720421	      0.03398626	      0.06149992	      0.05993818	      0.05659089	      0.05012058	      0.04467960	      0.03969011	      0.01525851	      0.01651186	      0.06550154	      0.04489616	      0.00080339	     -0.02419595	      0.19645782	      0.13712803	      0.02453756	      0.00241973	     -0.03638998	     -0.10462507	     -0.20666359	     -0.24172601	      0.00000079	     -0.32847694	      0.00000060	     -0.00000086	    124.83045042	     91.37421811	     13.13833991	     -7.36793937	      2.95323727	     49.35074441	   -124.83045042	    -91.37421811	    -13.13833991	      2.42904933	     -3.64304585	      2.37227320	      0.01454129	     -0.00190027	     -0.01042725	      0.00412774	     -0.00023728	      0.00579926	     -0.01454129	      0.00190027	      0.01042725	     -0.00001964	      0.00048174	     -0.00011488	   -853.13230425	   -367.68669469	    299.02567460	     -7.96867914	     20.72325398	      2.92645984	    853.13230425	    367.68669469	   -299.02567460	    126.90384164	    -14.87601776	    343.59020744	   -291.55571644	   -137.79979086	    -83.83995107	      4.47166561	    -10.26306850	      1.32353266	    291.55571644	    137.79979086	     83.83995107	    -37.17589933	      7.20810081	    117.42749323	    155.25625611	      0.01799410	    333.20062356	    975.93267600
